<?xml version="1.0" standalone="no"?>
<!DOCTYPE svg PUBLIC "-//W3C//DTD SVG 20010904//EN"
 "http://www.w3.org/TR/2001/REC-SVG-20010904/DTD/svg10.dtd">
<svg version="1.0" xmlns="http://www.w3.org/2000/svg"
 width="1449.000000pt" height="1449.000000pt" viewBox="0 0 1449.000000 1449.000000"
 preserveAspectRatio="xMidYMid meet">
<metadata>
Created by potrace 1.11, written by Peter Selinger 2001-2013
</metadata>
<g transform="translate(0.000000,1449.000000) scale(0.100000,-0.100000)"
fill="#000000" stroke="none">
<path d="M6417 14369 c-5 -17 -3 -18 31 -3 49 20 51 24 9 22 -25 -1 -37 -6
-40 -19z"/>
<path d="M6515 14367 c-27 -5 -52 -14 -56 -18 -4 -7 -36 -14 -81 -18 -5 -1 -7
-4 -6 -8 7 -22 -32 -54 -76 -62 -26 -5 -50 -12 -54 -16 -4 -4 3 -4 15 -1 28 9
44 0 36 -20 -9 -24 -42 -36 -136 -49 -82 -11 -92 -11 -129 7 -44 21 -88 17
-88 -8 0 -8 -5 -12 -10 -9 -6 4 -17 2 -24 -4 -7 -6 -43 -11 -80 -12 -36 -1
-69 -6 -72 -10 -3 -5 4 -9 15 -9 12 0 21 -4 21 -10 0 -5 -9 -10 -19 -10 -11 0
-23 -4 -26 -10 -3 -5 -14 -10 -23 -10 -15 0 -15 2 -2 11 11 8 -5 9 -57 5 -40
-2 -86 -1 -103 4 -33 9 -63 4 -55 -10 3 -5 -28 -13 -67 -20 -73 -12 -178 -55
-178 -73 0 -5 -15 -7 -35 -4 -67 11 -239 -68 -327 -150 -26 -23 -52 -43 -58
-43 -18 0 -11 -20 8 -20 15 -1 15 -2 -3 -16 -11 -8 -35 -27 -53 -42 -37 -30
-117 -79 -144 -88 -10 -4 -18 -15 -18 -25 0 -11 -9 -21 -24 -25 -14 -3 -27
-12 -30 -20 -3 -8 -17 -19 -31 -24 -20 -8 -25 -15 -20 -29 4 -14 0 -23 -13
-30 -34 -18 -34 -38 0 -39 16 0 33 -3 36 -6 10 -11 -22 -57 -48 -71 -14 -7
-49 -36 -78 -64 -29 -28 -57 -51 -63 -51 -5 0 -9 -14 -9 -31 0 -26 3 -30 23
-27 17 2 21 9 19 26 -4 25 22 62 43 62 6 0 22 11 34 24 26 27 78 52 88 42 4
-3 -7 -21 -23 -39 -17 -17 -43 -49 -58 -70 -23 -31 -30 -36 -42 -26 -8 6 -15
10 -17 8 -22 -39 -27 -51 -22 -59 3 -5 -4 -11 -15 -15 -11 -3 -20 -11 -20 -16
0 -12 17 -12 25 1 7 12 25 13 25 2 0 -16 -76 -88 -107 -101 -18 -7 -33 -21
-33 -30 0 -16 -65 -94 -85 -102 -5 -2 -23 -20 -40 -39 l-30 -35 40 36 c45 41
79 61 89 52 11 -12 6 -23 -24 -50 -17 -14 -30 -32 -30 -40 0 -7 -4 -13 -8 -13
-5 0 -23 -20 -41 -45 -40 -56 -24 -60 20 -5 18 22 34 38 37 36 8 -9 -60 -98
-84 -108 -13 -6 -24 -17 -24 -25 0 -7 -4 -13 -10 -13 -5 0 -17 -15 -26 -32 -9
-18 -48 -64 -88 -103 -39 -38 -84 -88 -101 -109 -16 -22 -51 -66 -77 -99 -26
-32 -50 -68 -54 -79 -3 -11 -24 -48 -45 -81 -22 -33 -39 -68 -39 -79 0 -10 -6
-18 -13 -18 -16 0 -47 -32 -47 -48 0 -7 19 7 43 29 l42 42 3 -27 c4 -29 19
-35 28 -11 6 14 8 13 19 -2 7 -10 11 -21 8 -26 -2 -4 1 -6 9 -5 15 4 24 -40
10 -54 -6 -6 -23 -1 -45 12 -20 12 -40 19 -45 16 -10 -6 -32 -83 -32 -112 0
-13 3 -14 15 -4 8 7 15 20 16 29 0 9 3 11 5 6 2 -6 -4 -27 -15 -48 -16 -31
-20 -34 -24 -17 -7 28 -27 25 -27 -5 0 -13 -6 -44 -14 -67 -8 -24 -22 -70 -31
-103 -10 -33 -22 -64 -27 -69 -4 -6 -8 -14 -8 -19 0 -16 18 3 34 38 16 32 36
47 36 26 0 -15 -59 -152 -80 -186 -11 -18 -20 -42 -20 -53 0 -26 -26 -108 -45
-144 -19 -32 -19 -38 -1 -38 8 0 17 11 20 25 4 16 13 25 26 25 11 0 20 6 20
13 0 7 11 35 24 63 13 27 26 57 30 67 8 24 30 17 34 -10 2 -13 -5 -27 -18 -36
-17 -12 -22 -27 -24 -68 -2 -35 -15 -78 -35 -121 -17 -36 -31 -80 -31 -98 0
-17 -4 -39 -10 -49 -5 -10 -11 -57 -14 -104 -3 -47 -12 -101 -19 -119 -15 -37
-30 -102 -30 -133 1 -71 4 -88 14 -78 5 5 12 28 14 49 11 98 18 130 45 197 16
40 38 107 50 151 22 84 45 136 60 136 4 0 2 -24 -5 -52 -8 -29 -20 -80 -28
-113 -8 -33 -16 -66 -18 -74 -2 -8 3 -16 12 -18 12 -3 21 11 33 51 20 62 42
88 52 61 4 -9 2 -27 -4 -40 -8 -17 -8 -25 0 -27 7 -3 10 -33 9 -80 -2 -82 13
-114 22 -46 5 36 36 88 38 63 5 -73 5 -95 -3 -123 -9 -29 -12 -31 -26 -20 -14
11 -15 10 -8 -7 5 -11 11 -30 13 -42 3 -12 11 -19 18 -17 7 3 15 -4 18 -16 4
-14 -5 -31 -29 -57 -19 -20 -32 -39 -29 -42 4 -3 24 -6 46 -6 l39 0 0 -73 c0
-46 7 -92 19 -127 12 -35 17 -68 14 -93 -3 -24 -1 -42 6 -46 6 -4 11 -29 11
-55 0 -26 5 -52 11 -58 6 -6 12 -47 13 -92 1 -44 5 -83 9 -87 4 -4 7 -26 7
-48 0 -23 7 -52 16 -64 10 -15 13 -30 8 -45 -10 -28 -6 -56 11 -82 12 -20 11
-40 -14 -187 -7 -43 -5 -50 14 -62 18 -12 24 -12 40 0 23 17 34 4 35 -41 1
-16 9 -64 19 -105 16 -67 21 -75 40 -72 19 3 21 -1 21 -57 0 -33 4 -70 9 -83
6 -13 13 -54 16 -91 l7 -68 25 16 c13 9 27 15 29 13 8 -8 22 -104 29 -188 3
-47 13 -107 21 -135 7 -27 22 -92 31 -143 10 -51 23 -92 28 -90 6 2 8 8 6 13
-11 31 -12 45 -2 45 6 0 11 -6 11 -13 0 -8 11 -36 25 -63 14 -27 25 -56 25
-66 0 -9 4 -18 8 -20 5 -1 27 -43 50 -93 24 -53 50 -95 62 -101 24 -13 43 -44
54 -88 4 -16 9 -26 12 -24 8 8 -17 147 -52 294 -31 128 -64 310 -64 356 0 30
14 21 39 -27 22 -42 52 -65 35 -27 -10 22 -10 52 0 80 6 19 4 24 -12 29 -24 6
-52 69 -52 116 1 32 1 32 14 8 11 -20 13 -13 12 59 -1 46 -2 76 -4 66 -2 -9
-8 -16 -13 -16 -5 0 -9 29 -9 65 0 36 4 65 9 65 12 0 22 -55 14 -77 -5 -15 -3
-16 8 -5 23 22 27 13 28 -70 1 -45 4 -84 7 -87 4 -3 4 59 2 139 -3 108 -1 151
9 171 8 15 16 65 18 111 8 149 33 218 79 218 29 0 43 11 55 43 6 15 17 27 26
27 8 0 15 7 15 15 0 9 14 29 31 46 24 24 37 29 69 27 37 -3 38 -4 51 -56 9
-40 19 -56 35 -62 12 -5 25 -14 29 -19 12 -21 65 -12 92 15 15 15 40 30 57 35
20 6 36 19 44 39 14 32 31 37 64 19 42 -23 23 16 -20 40 -16 9 -15 12 6 31 12
11 22 29 22 40 0 19 35 50 55 50 5 0 3 -5 -5 -10 -9 -6 -10 -10 -3 -10 6 0 15
5 18 10 3 6 17 10 30 10 20 0 25 -6 31 -37 8 -46 43 -109 79 -143 25 -23 34
-25 130 -25 84 0 106 3 122 18 11 9 25 17 32 17 44 0 110 91 111 153 0 15 6
30 13 33 20 7 97 -67 97 -94 0 -27 8 -28 26 -4 12 16 14 16 30 0 17 -17 17
-18 -1 -38 -10 -11 -25 -20 -34 -20 -11 0 -12 -3 -4 -11 8 -8 17 -8 31 0 17 9
28 7 56 -10 46 -27 49 -8 6 46 -16 21 -30 42 -30 46 0 5 -31 39 -68 77 -50 51
-89 78 -146 106 -71 33 -90 38 -206 46 -109 9 -136 8 -175 -6 -26 -8 -60 -16
-76 -16 -16 -1 -29 -4 -29 -8 0 -4 -19 -12 -42 -19 -24 -7 -54 -20 -67 -28
-20 -13 -25 -13 -32 -2 -13 21 -11 28 20 59 47 47 125 65 276 63 129 -2 254
-21 280 -43 7 -6 19 -10 27 -9 12 2 50 -11 91 -33 11 -5 21 -7 25 -4 10 10
-38 44 -96 67 -31 12 -61 26 -67 30 -44 32 -363 51 -435 26 -27 -10 -83 -27
-86 -27 -2 0 -4 5 -4 11 0 5 5 7 12 3 7 -4 8 -3 4 4 -4 7 -15 12 -23 12 -14 0
-13 3 4 19 12 11 23 24 24 28 6 12 138 83 182 97 10 3 15 10 12 16 -11 18 44
10 57 -8 20 -29 53 -42 87 -36 20 4 31 2 31 -5 0 -6 -8 -11 -17 -11 -15 0 -16
-2 -3 -10 9 -6 17 -5 22 3 6 9 10 9 17 -2 5 -8 29 -15 52 -17 24 -2 45 -8 47
-14 8 -24 24 -8 18 18 l-7 27 18 -26 c14 -20 21 -24 30 -15 31 29 42 33 69 29
16 -3 35 -10 42 -16 8 -7 12 -5 12 8 0 14 3 15 15 5 8 -6 18 -9 24 -6 18 12
73 -7 81 -28 9 -21 9 -21 9 2 1 13 7 22 16 22 8 0 15 6 15 13 0 7 16 21 35 30
39 18 43 28 19 48 -8 7 -13 21 -11 30 3 10 -2 27 -10 38 -11 17 -18 19 -33 11
-13 -7 -21 -7 -25 0 -3 5 0 10 8 10 8 0 20 7 28 16 11 13 11 15 -2 14 -28 -4
-39 0 -39 16 0 9 8 14 18 13 29 -3 42 1 42 11 0 6 -6 10 -14 10 -8 0 -16 7
-20 15 -3 8 -15 15 -27 15 -28 0 -20 21 14 38 15 7 27 21 27 31 0 11 7 21 15
25 11 4 14 13 9 31 -7 27 20 70 38 59 10 -6 98 81 98 97 0 6 5 7 10 4 15 -9
60 22 60 40 0 8 7 15 15 15 8 0 19 9 25 20 6 11 15 20 21 20 13 0 108 70 146
109 18 17 34 31 37 31 3 0 17 11 32 25 28 26 87 35 99 14 5 -7 14 -3 26 10 11
12 31 21 44 21 14 0 25 4 25 10 0 14 53 60 69 60 8 0 22 6 30 14 21 19 96 46
144 51 20 2 45 9 55 14 11 6 23 6 33 0 7 -5 33 -8 57 -7 28 1 46 -3 52 -11 6
-11 17 -12 51 -3 24 6 56 8 72 5 23 -5 27 -10 27 -39 0 -19 -4 -34 -10 -34 -5
0 -10 -9 -10 -21 0 -12 -8 -23 -20 -26 -23 -6 -27 -41 -5 -49 8 -3 20 -2 27 2
9 6 6 10 -12 15 -24 7 -24 7 -4 14 12 4 27 18 34 31 8 13 17 24 22 24 5 0 7
-4 3 -9 -3 -5 0 -13 6 -17 10 -6 32 18 34 36 1 9 56 60 63 58 10 -3 75 13 87
21 9 6 52 7 110 2 18 -1 17 -4 -10 -25 -16 -13 -35 -21 -42 -19 -7 3 -13 -2
-13 -12 0 -9 -7 -23 -15 -32 -14 -14 -14 -17 1 -34 9 -11 13 -19 9 -19 -5 0 0
-7 11 -15 10 -8 29 -15 42 -15 20 0 21 -3 12 -20 -6 -11 -17 -20 -25 -20 -8 0
-21 -13 -30 -29 -8 -16 -20 -31 -27 -34 -23 -8 -4 -15 25 -10 15 3 27 12 27
19 0 8 5 14 10 14 6 0 60 50 120 110 60 61 116 110 125 110 8 0 15 7 15 15 0
8 5 15 10 15 6 0 10 -7 10 -15 0 -8 -4 -15 -10 -15 -5 0 -10 -6 -10 -14 0 -20
77 -25 113 -7 36 17 49 5 20 -19 -28 -23 -29 -30 -3 -30 12 0 24 9 29 22 l8
23 7 -23 c8 -23 36 -31 36 -9 0 6 5 4 11 -5 6 -10 22 -18 37 -18 16 0 33 -5
39 -11 9 -9 20 -9 44 0 43 15 59 14 59 -4 0 -8 7 -15 16 -15 9 0 18 -8 20 -18
3 -9 18 -25 35 -34 45 -26 37 -39 -21 -34 -35 4 -54 1 -64 -9 -8 -8 -23 -14
-33 -13 -53 4 -72 -3 -87 -32 -15 -30 -14 -31 12 -41 15 -5 34 -12 42 -16 8
-3 20 -7 25 -8 6 0 17 -4 25 -8 8 -3 26 -7 39 -9 34 -4 38 -26 7 -38 -37 -14
-32 -28 14 -40 21 -6 42 -15 45 -20 3 -6 19 -10 35 -10 16 0 35 -7 44 -15 8
-8 24 -15 35 -15 12 0 21 -4 21 -10 0 -5 -4 -10 -9 -10 -5 0 -16 -3 -25 -6
-11 -4 -16 -1 -16 10 0 20 -9 20 -34 1 -22 -17 -22 -16 18 -33 27 -12 28 -13
10 -27 -18 -13 -17 -14 14 -15 39 0 43 -20 5 -21 -16 -1 -30 -1 -33 -1 -3 0
-17 -9 -30 -20 l-25 -20 25 5 c14 3 50 12 80 19 62 15 91 13 84 -7 -3 -7 -1
-16 5 -20 6 -3 11 -1 11 4 0 6 9 11 20 11 12 0 20 -7 20 -16 0 -16 19 -15 64
2 9 3 16 1 16 -5 0 -5 -19 -15 -42 -21 -24 -6 -58 -15 -77 -20 -19 -5 -37 -7
-41 -5 -4 3 -14 -3 -21 -12 -13 -15 -11 -16 15 -9 80 20 87 20 93 -3 6 -22 27
-28 38 -11 3 6 14 10 23 10 10 0 13 -3 7 -8 -6 -4 -12 -17 -12 -29 -1 -17 4
-23 18 -23 10 0 20 -6 20 -12 1 -7 3 -24 4 -38 1 -14 -3 -34 -11 -44 -9 -14
-10 -25 -3 -38 5 -10 7 -23 4 -28 -5 -8 8 -24 49 -58 17 -13 11 -42 -8 -42 -7
0 -22 -9 -34 -21 -13 -12 -27 -17 -35 -12 -6 4 -21 9 -31 10 -10 2 -24 10 -30
17 -6 8 -29 22 -51 32 -22 10 -42 20 -45 23 -6 7 -42 23 -90 41 -125 45 -323
78 -381 62 -30 -8 -28 -8 26 -9 79 0 325 -70 325 -92 0 -3 14 -12 30 -19 21
-10 30 -21 30 -38 0 -30 -11 -30 -102 1 -112 39 -127 43 -217 59 -94 18 -199
21 -245 7 -28 -9 -153 -36 -213 -47 -41 -8 -203 -164 -234 -227 -12 -23 -30
-53 -40 -66 -17 -22 -27 -71 -14 -71 3 0 23 9 45 20 22 11 50 20 62 20 13 0
29 4 36 9 10 6 8 10 -10 14 -12 4 -33 7 -45 7 -13 0 -23 5 -23 10 0 6 11 10
25 10 14 0 30 9 37 20 16 25 34 26 47 3 7 -14 11 -10 17 22 9 50 56 121 87
131 12 4 25 11 28 17 13 20 38 -3 49 -44 15 -54 48 -107 94 -147 36 -31 39
-32 134 -32 77 0 106 4 135 19 35 18 117 100 118 118 1 14 19 43 27 43 5 0 19
-18 32 -40 22 -34 30 -39 63 -40 25 0 37 -5 37 -14 0 -15 27 -30 49 -27 7 1
10 -2 7 -8 -9 -15 13 -24 28 -12 7 6 20 9 29 6 9 -4 21 2 30 15 10 15 20 19
29 14 7 -5 29 -10 48 -11 19 -1 49 -4 65 -7 17 -4 40 -1 54 6 28 15 42 42 17
32 -22 -9 -40 37 -20 52 15 12 18 30 7 37 -5 2 -2 2 5 0 15 -3 51 35 52 55 0
6 7 12 15 12 8 0 14 -3 12 -7 -2 -9 6 -13 29 -13 8 0 13 4 9 9 -6 11 6 20 35
26 11 2 20 0 20 -6 0 -5 -4 -9 -10 -9 -19 0 -10 -22 11 -27 11 -3 25 -17 30
-30 7 -19 14 -23 30 -18 15 5 22 2 26 -13 3 -13 17 -22 39 -26 23 -5 39 -16
51 -36 9 -17 23 -30 30 -30 7 0 13 -6 13 -14 0 -7 7 -19 15 -26 8 -7 15 -23
15 -35 0 -13 7 -26 16 -29 11 -4 14 -14 10 -33 -8 -40 17 -108 41 -108 15 0
18 -9 19 -60 0 -33 -5 -80 -13 -105 -7 -25 -13 -49 -13 -53 0 -19 21 7 40 47
25 56 44 73 46 40 3 -50 14 -78 27 -65 6 6 16 11 21 11 14 0 61 -71 58 -87 -2
-7 2 -13 9 -13 7 0 10 -12 7 -31 -4 -25 -1 -33 14 -37 12 -3 17 -10 14 -19 -4
-8 -9 -32 -12 -54 -5 -31 -3 -39 9 -39 15 0 32 -28 22 -38 -3 -3 -5 1 -5 8 0
10 -3 11 -11 3 -11 -11 7 -53 23 -53 14 0 8 -31 -7 -36 -19 -8 -19 -37 0 -74
9 -17 13 -41 11 -54 -2 -13 -1 -40 4 -60 6 -26 4 -38 -7 -47 -16 -14 -9 -65
14 -87 11 -12 17 -12 26 -2 9 10 9 14 -1 17 -9 4 -8 14 7 41 11 21 27 63 37
95 10 33 23 65 31 72 7 8 13 21 13 30 0 9 5 13 10 10 6 -4 8 -10 5 -15 -3 -5
2 -13 11 -18 18 -10 18 -9 -6 -127 -6 -33 -12 -68 -11 -78 0 -10 -4 -29 -9
-43 -7 -17 -6 -23 3 -21 7 1 11 -6 9 -16 -3 -16 0 -17 20 -6 13 7 26 17 30 23
13 20 22 -26 9 -47 -19 -29 7 -42 34 -17 11 10 25 18 30 18 11 -1 44 59 45 82
1 23 37 61 60 63 19 1 22 5 24 36 2 27 26 24 26 -3 0 -22 5 -26 28 -26 l27 1
-23 12 c-24 14 -21 30 4 20 18 -7 18 4 0 23 -8 8 -22 11 -30 8 -17 -6 -21 11
-10 40 6 15 8 15 20 -1 13 -17 13 -17 14 0 0 9 7 17 16 17 10 0 13 6 10 18 -4
12 5 24 32 41 46 30 186 172 206 209 8 15 23 43 33 62 12 25 19 30 21 18 2 -9
-2 -26 -8 -37 -9 -17 -8 -20 5 -15 8 4 15 2 15 -3 0 -13 -50 -112 -60 -118 -5
-3 -7 -12 -4 -19 3 -7 -2 -19 -11 -26 -8 -7 -15 -19 -15 -26 0 -8 -6 -14 -14
-14 -8 0 -19 -14 -25 -30 -5 -16 -14 -30 -19 -30 -6 0 -13 -11 -16 -24 -3 -13
-9 -31 -12 -40 -3 -9 -1 -16 5 -16 6 0 10 4 8 9 -2 8 51 65 69 72 14 6 73 94
94 141 10 24 23 42 27 40 4 -2 13 18 19 45 6 27 18 64 27 83 8 19 18 49 20 65
3 17 12 53 20 80 8 28 17 77 20 110 8 80 18 127 29 142 9 11 11 143 5 300 -1
23 4 48 10 54 18 18 45 -21 79 -113 28 -75 44 -97 44 -60 0 20 -28 102 -39
117 -13 16 -21 62 -15 80 6 15 8 15 25 -1 17 -15 18 -15 25 10 4 16 0 39 -10
60 -9 19 -16 47 -16 64 0 16 -7 35 -15 42 -17 14 -20 40 -5 40 15 0 12 27 -10
74 -11 24 -22 63 -26 87 -4 24 -11 49 -16 56 -5 7 -7 21 -3 33 4 11 0 44 -8
73 -25 85 -36 184 -37 317 0 69 -3 142 -7 162 -3 23 -1 43 6 52 9 11 8 35 -3
102 -8 49 -20 123 -27 164 -6 41 -19 93 -29 115 -28 62 -35 156 -16 197 16 34
16 35 -29 133 -24 55 -45 105 -45 111 0 6 -13 44 -30 84 -16 40 -30 83 -30 95
0 12 -9 32 -20 45 -21 25 -26 45 -11 54 8 5 -5 39 -38 96 -4 8 -23 47 -41 85
-17 39 -47 93 -65 120 -37 57 -65 119 -65 146 0 9 -19 46 -42 80 -24 34 -52
76 -63 94 -11 18 -36 52 -56 76 -20 24 -53 67 -75 96 -21 28 -67 72 -101 98
-35 26 -63 52 -63 58 0 18 -163 183 -198 201 -17 9 -33 25 -37 36 -3 11 -10
20 -15 20 -8 0 -70 85 -70 97 0 3 10 3 21 0 18 -5 16 0 -12 29 -30 31 -31 39
-6 35 21 -4 -2 24 -33 40 -18 10 -47 31 -64 47 -44 42 -208 148 -286 186 -37
18 -88 48 -114 67 -83 59 -98 67 -112 62 -10 -3 -12 0 -8 10 4 12 -6 16 -48
22 -77 9 -109 21 -243 85 -66 32 -142 66 -170 75 -49 18 -102 55 -77 55 25 0
121 -41 212 -90 57 -31 105 -40 98 -17 -3 6 -31 22 -64 35 -64 25 -108 45 -83
38 9 -2 22 0 29 4 16 10 -4 20 -78 40 -24 6 -51 19 -61 28 -9 9 -23 18 -31 19
-61 9 -166 35 -174 43 -5 5 -24 10 -41 10 -23 0 -26 -3 -15 -10 8 -5 25 -10
38 -10 12 0 22 -5 22 -11 0 -7 -10 -9 -27 -5 -16 3 -66 11 -113 16 -47 6 -107
14 -135 19 -27 6 -87 10 -132 10 -45 1 -93 5 -107 11 -21 7 -26 6 -26 -5 0
-10 -10 -15 -30 -15 -25 0 -30 -4 -30 -25 0 -25 -14 -33 -25 -15 -10 16 -35
12 -62 -10 -25 -19 -27 -19 -45 -3 -13 12 -17 25 -13 41 9 37 -20 59 -75 56
-25 -2 -67 3 -95 11 -27 8 -91 19 -142 25 -97 11 -123 17 -123 30 0 10 -81 40
-105 39 -11 -1 -42 -6 -70 -12z m125 -61 c0 -11 -19 -15 -25 -6 -3 5 1 10 9
10 9 0 16 -2 16 -4z m448 -75 c12 -11 22 -22 22 -25 0 -14 -31 -4 -57 19 -25
22 -26 24 -8 24 11 0 30 -8 43 -18z m-510 -21 c-15 -23 -60 -41 -78 -30 -14 9
-3 18 45 36 43 17 47 16 33 -6z m-568 -60 c8 -1 4 -6 -9 -11 -28 -11 -51 -5
-51 12 0 7 9 9 23 5 12 -3 29 -6 37 -6z m1945 -10 c3 -5 -1 -10 -10 -10 -9 0
-13 5 -10 10 3 6 8 10 10 10 2 0 7 -4 10 -10z m-1286 -44 c-2 -2 -15 -7 -29
-10 l-25 -7 25 15 c21 12 42 14 29 2z m-1534 -146 c-3 -5 -16 -10 -28 -10 -18
0 -19 2 -7 10 20 13 43 13 35 0z m-127 -62 c-5 -15 -107 -72 -115 -65 -9 10 8
27 28 27 11 0 22 7 25 15 4 8 15 15 25 15 10 0 19 5 19 10 0 6 5 10 11 10 6 0
9 -6 7 -12z m-178 -248 c0 -11 -33 -30 -52 -30 -7 1 -3 9 11 20 25 22 41 26
41 10z m-110 -49 c0 -5 -24 -27 -54 -50 -30 -23 -57 -49 -60 -57 -6 -16 -15
-17 -36 -4 -11 7 -4 17 34 52 69 60 116 85 116 59z m4380 -82 c0 -5 -4 -9 -10
-9 -5 0 -10 7 -10 16 0 8 5 12 10 9 6 -3 10 -10 10 -16z m-4658 -481 c-6 -6
-16 -8 -22 -6 -9 3 -7 9 6 22 13 13 19 15 22 6 2 -6 0 -16 -6 -22z m-128 -57
c-16 -22 -35 -41 -42 -41 -8 0 -12 3 -10 8 24 48 33 61 52 70 31 14 31 8 0
-37z m-464 -706 c0 -8 -7 -15 -16 -15 -14 0 -14 3 -4 15 7 8 14 15 16 15 2 0
4 -7 4 -15z m50 -29 c0 -3 -15 -28 -32 -57 -23 -36 -34 -47 -36 -35 -4 18 44
96 59 96 5 0 9 -2 9 -4z m-130 -61 c0 -8 -8 -23 -17 -33 -10 -10 -24 -30 -32
-45 -8 -15 -18 -27 -23 -27 -14 0 -9 37 7 50 8 7 15 17 15 22 0 8 38 46 48 48
1 0 2 -7 2 -15z m-148 -417 c-7 -7 -12 -8 -12 -2 0 14 12 26 19 19 2 -3 -1
-11 -7 -17z m18 -713 c0 -8 -4 -15 -10 -15 -5 0 -7 7 -4 15 4 8 8 15 10 15 2
0 4 -7 4 -15z m129 -157 c0 -7 -4 -22 -9 -33 -7 -17 -9 -15 -9 13 -1 17 4 32
9 32 6 0 10 -6 9 -12z m4601 -82 c0 -3 -4 -8 -10 -11 -5 -3 -10 -1 -10 4 0 6
5 11 10 11 6 0 10 -2 10 -4z m335 -455 c3 -5 1 -12 -5 -16 -5 -3 -10 1 -10 9
0 18 6 21 15 7z m-25 -21 c0 -5 -5 -10 -11 -10 -5 0 -7 5 -4 10 3 6 8 10 11
10 2 0 4 -4 4 -10z m-30 -30 c0 -5 -4 -10 -10 -10 -5 0 -10 5 -10 10 0 6 5 10
10 10 6 0 10 -4 10 -10z m71 -253 c-13 -13 -26 -3 -16 12 3 6 11 8 17 5 6 -4
6 -10 -1 -17z m9 -33 c0 -12 6 -15 25 -10 20 5 25 3 25 -14 0 -11 -5 -20 -11
-20 -5 0 -8 4 -5 9 3 5 -8 11 -24 15 -28 5 -44 36 -20 36 6 0 10 -7 10 -16z
m1710 -14 c0 -5 -4 -10 -10 -10 -5 0 -10 5 -10 10 0 6 5 10 10 10 6 0 10 -4
10 -10z m-2624 -25 c9 -37 -2 -55 -35 -55 -44 0 -59 54 -18 70 36 14 46 11 53
-15z m614 -14 c0 -4 -7 -8 -15 -8 -16 0 -20 9 -9 20 8 8 24 -1 24 -12z m-417
-10 c16 -1 27 -7 27 -15 0 -12 -7 -12 -49 -1 -28 7 -52 10 -55 7 -3 -3 -6 0
-6 6 0 6 12 9 28 8 15 -2 39 -4 55 -5z m-2499 -162 c-3 -5 -10 -7 -15 -3 -5 3
-7 10 -3 15 3 5 10 7 15 3 5 -3 7 -10 3 -15z m-464 3 c0 -13 -12 -22 -22 -16
-10 6 -1 24 13 24 5 0 9 -4 9 -8z m-40 -28 c0 -12 -38 -53 -43 -48 -7 8 22 54
34 54 5 0 9 -3 9 -6z m540 -9 c-18 -22 -3 -35 43 -35 29 0 38 -3 30 -11 -5 -5
-30 -9 -54 -7 -33 2 -45 8 -47 21 -5 27 5 47 24 47 13 0 14 -3 4 -15z m-144
-21 c7 -28 -9 -46 -36 -41 -22 3 -25 39 -4 54 26 19 33 16 40 -13z m-466 -34
c0 -5 -2 -10 -4 -10 -3 0 -8 5 -11 10 -3 6 -1 10 4 10 6 0 11 -4 11 -10z m-60
-60 c0 -5 -4 -10 -10 -10 -5 0 -10 5 -10 10 0 6 5 10 10 10 6 0 10 -4 10 -10z
m5306 -112 c-1 -24 -9 -54 -18 -68 -21 -33 -33 -75 -20 -66 16 9 21 -6 11 -32
-5 -13 -13 -20 -19 -17 -6 4 -7 11 -4 17 4 6 2 13 -3 17 -15 9 -25 78 -13 86
5 3 10 13 10 21 0 9 7 22 15 30 8 9 15 24 15 35 0 10 7 19 14 19 11 0 14 -11
12 -42z m-16 -244 c0 -8 -4 -12 -10 -9 -5 3 -10 13 -10 21 0 8 5 12 10 9 6 -3
10 -13 10 -21z m-6080 -195 c0 -5 -4 -9 -10 -9 -5 0 -10 7 -10 16 0 8 5 12 10
9 6 -3 10 -10 10 -16z m4 -87 c3 -36 1 -62 -5 -62 -5 0 -9 30 -9 67 0 81 8 79
14 -5z m5544 -103 c-1 -18 -10 -35 -21 -41 -28 -15 -35 1 -9 22 12 10 22 25
22 34 0 9 2 16 5 16 3 0 4 -14 3 -31z m-5254 -596 c9 -28 16 -60 16 -70 0 -11
5 -24 12 -31 6 -6 9 -14 5 -18 -10 -10 -27 6 -27 26 0 11 -11 63 -25 116 -37
144 -29 134 19 -23z m53 -195 c-3 -7 -5 -2 -5 12 0 14 2 19 5 13 2 -7 2 -19 0
-25z"/>
<path d="M7650 14280 c8 -5 22 -10 30 -10 13 0 13 1 0 10 -8 5 -22 10 -30 10
-13 0 -13 -1 0 -10z"/>
<path d="M7183 14269 c14 -8 22 -8 30 0 8 8 3 11 -18 11 -26 -1 -28 -2 -12
-11z"/>
<path d="M7268 14273 c6 -2 18 -2 25 0 6 3 1 5 -13 5 -14 0 -19 -2 -12 -5z"/>
<path d="M5235 14030 c-3 -5 -2 -10 4 -10 5 0 13 5 16 10 3 6 2 10 -4 10 -5 0
-13 -4 -16 -10z"/>
<path d="M8344 13989 c-3 -5 3 -12 13 -15 10 -3 28 -10 41 -15 29 -11 42 -11
42 0 0 12 -89 40 -96 30z"/>
<path d="M4793 13776 c-30 -14 -29 -24 2 -18 14 2 25 11 25 18 0 8 -1 13 -2
13 -2 -1 -13 -6 -25 -13z"/>
<path d="M4062 12790 c-18 -30 -14 -36 8 -12 21 22 25 32 12 32 -4 0 -13 -9
-20 -20z"/>
<path d="M3620 12015 c-18 -21 -3 -32 16 -13 10 9 12 18 6 22 -5 3 -15 -1 -22
-9z"/>
<path d="M7370 10998 c0 -23 13 -23 34 1 17 18 16 19 -8 17 -18 -1 -26 -7 -26
-18z"/>
<path d="M7781 10945 c-7 -19 -20 -39 -30 -45 -10 -5 -24 -23 -31 -40 -7 -16
-15 -30 -19 -30 -3 0 -12 -10 -20 -22 -7 -13 7 -3 33 22 25 24 46 47 46 52 0
4 11 19 25 34 14 15 25 35 25 45 0 30 -15 22 -29 -16z"/>
<path d="M7268 10883 c7 -3 16 -2 19 1 4 3 -2 6 -13 5 -11 0 -14 -3 -6 -6z"/>
<path d="M3524 10843 c-3 -10 -10 -28 -15 -40 -8 -21 -7 -22 11 -11 12 8 20
24 20 40 0 32 -8 37 -16 11z"/>
<path d="M3571 10834 c0 -11 3 -14 6 -6 3 7 2 16 -1 19 -3 4 -6 -2 -5 -13z"/>
<path d="M7416 10825 c-10 -8 -24 -16 -30 -18 -6 -2 -8 -7 -5 -11 6 -6 79 31
79 40 0 9 -26 2 -44 -11z"/>
<path d="M7445 10730 c-3 -5 -1 -10 4 -10 6 0 11 5 11 10 0 6 -2 10 -4 10 -3
0 -8 -4 -11 -10z"/>
<path d="M7595 10700 c-3 -5 -1 -10 4 -10 6 0 11 5 11 10 0 6 -2 10 -4 10 -3
0 -8 -4 -11 -10z"/>
<path d="M7750 10683 c0 -7 7 -16 15 -19 8 -4 15 -10 15 -15 0 -13 -58 -11
-97 3 -30 11 -35 10 -49 -10 -11 -17 -25 -22 -57 -22 -50 0 -121 -31 -153 -65
-13 -14 -20 -25 -17 -25 3 0 0 -7 -7 -15 -10 -12 -10 -18 0 -30 15 -18 8 -21
-65 -28 -61 -7 -119 -28 -92 -34 9 -3 17 -8 17 -13 0 -10 -29 -22 -40 -15 -4
3 -14 -2 -21 -11 -11 -13 -9 -14 17 -9 l29 7 -24 -20 c-16 -13 -37 -18 -64
-17 -37 2 -39 1 -22 -11 10 -8 28 -14 38 -14 17 0 19 -5 14 -35 -4 -25 -2 -35
7 -35 8 0 19 -7 26 -15 10 -12 9 -15 -5 -15 -14 0 -15 -3 -5 -15 6 -8 9 -18 6
-24 -9 -14 4 -42 17 -34 5 3 27 8 48 9 20 2 49 8 63 14 31 11 36 35 6 27 -11
-3 -18 -2 -15 3 3 4 22 11 42 15 21 3 55 17 76 31 20 13 37 19 37 13 0 -8 4
-8 14 1 8 6 12 18 9 26 -3 8 0 14 6 14 6 0 11 6 11 13 0 7 16 13 41 15 23 1
51 9 63 17 11 8 35 15 54 15 20 0 35 6 38 15 4 8 11 15 16 15 6 0 32 10 59 22
37 18 49 28 49 45 0 24 9 28 90 37 25 3 73 11 106 19 34 8 68 11 76 6 13 -7
148 14 169 27 23 14 -14 21 -77 16 -36 -2 -99 1 -142 7 -42 7 -92 14 -109 17
-45 7 -42 24 5 24 l37 0 -25 20 c-14 11 -33 20 -42 20 -9 0 -20 5 -23 10 -3 6
-17 10 -30 10 -13 0 -25 6 -27 12 -6 18 -108 19 -108 1z m224 -134 c-7 -11
-34 -12 -34 -1 0 14 11 21 26 15 8 -3 11 -9 8 -14z m-462 -11 c-9 -9 -15 -9
-24 0 -9 9 -7 12 12 12 19 0 21 -3 12 -12z m-272 -244 c0 -2 -7 -4 -15 -4 -8
0 -15 4 -15 10 0 5 7 7 15 4 8 -4 15 -8 15 -10z"/>
<path d="M7925 10670 c-3 -5 1 -10 10 -10 9 0 13 5 10 10 -3 6 -8 10 -10 10
-2 0 -7 -4 -10 -10z"/>
<path d="M8080 10630 c0 -5 7 -10 15 -10 8 0 15 5 15 10 0 6 -7 10 -15 10 -8
0 -15 -4 -15 -10z"/>
<path d="M3402 10555 c-14 -31 -15 -45 -3 -45 8 0 24 60 18 67 -2 2 -9 -8 -15
-22z"/>
<path d="M3630 10479 c0 -5 5 -7 10 -4 6 3 10 8 10 11 0 2 -4 4 -10 4 -5 0
-10 -5 -10 -11z"/>
<path d="M8457 10393 c-12 -11 -8 -23 8 -23 8 0 15 7 15 15 0 16 -12 20 -23 8z"/>
<path d="M8375 10360 c-3 -5 1 -10 9 -10 8 0 18 5 21 10 3 6 -1 10 -9 10 -8 0
-18 -4 -21 -10z"/>
<path d="M8615 10220 c3 -5 10 -10 16 -10 5 0 9 5 9 10 0 6 -7 10 -16 10 -8 0
-12 -4 -9 -10z"/>
<path d="M7143 10203 c-18 -7 -16 -32 2 -39 17 -7 49 21 40 36 -7 11 -22 12
-42 3z"/>
<path d="M7878 10143 c7 -3 16 -2 19 1 4 3 -2 6 -13 5 -11 0 -14 -3 -6 -6z"/>
<path d="M7720 10114 c-95 -25 -267 -121 -249 -139 9 -8 87 22 116 45 27 21
162 88 203 101 47 14 -11 9 -70 -7z"/>
<path d="M5337 10104 c-9 -10 4 -34 19 -34 8 0 14 4 14 9 0 12 -26 32 -33 25z"/>
<path d="M8655 10030 c3 -5 11 -10 16 -10 6 0 7 5 4 10 -3 6 -11 10 -16 10 -6
0 -7 -4 -4 -10z"/>
<path d="M8715 9890 c-3 -5 -2 -10 4 -10 5 0 13 5 16 10 3 6 2 10 -4 10 -5 0
-13 -4 -16 -10z"/>
<path d="M7505 9710 c-3 -5 1 -10 9 -10 9 0 16 5 16 10 0 6 -4 10 -9 10 -6 0
-13 -4 -16 -10z"/>
<path d="M5800 9560 c-13 -8 -13 -10 2 -10 9 0 20 5 23 10 8 13 -5 13 -25 0z"/>
<path d="M8038 9443 c7 -3 16 -2 19 1 4 3 -2 6 -13 5 -11 0 -14 -3 -6 -6z"/>
<path d="M5567 9274 c-3 -3 -34 -8 -69 -11 -35 -3 -68 -9 -75 -15 -7 -5 -17
-7 -23 -3 -5 3 -10 1 -10 -5 0 -6 -5 -8 -10 -5 -6 4 -16 3 -23 -2 -7 -5 -28
-9 -47 -8 -19 1 -43 -3 -52 -7 -11 -5 -18 -5 -18 1 0 6 -7 8 -16 4 -14 -5 -14
-8 -1 -20 21 -21 130 -26 191 -10 28 8 77 20 109 27 32 8 57 19 57 26 0 7 8
10 20 7 24 -6 27 12 4 21 -20 8 -29 8 -37 0z"/>
<path d="M4089 8884 c-3 -31 4 -111 11 -123 4 -8 7 16 5 53 -1 36 -5 69 -8 73
-4 3 -7 2 -8 -3z"/>
<path d="M9920 8730 c0 -5 7 -10 15 -10 8 0 15 5 15 10 0 6 -7 10 -15 10 -8 0
-15 -4 -15 -10z"/>
<path d="M4431 8684 c0 -11 3 -14 6 -6 3 7 2 16 -1 19 -3 4 -6 -2 -5 -13z"/>
<path d="M9868 8673 c6 -2 18 -2 25 0 6 3 1 5 -13 5 -14 0 -19 -2 -12 -5z"/>
<path d="M9595 8480 c3 -5 8 -10 11 -10 2 0 4 5 4 10 0 6 -5 10 -11 10 -5 0
-7 -4 -4 -10z"/>
<path d="M9565 8430 c-8 -16 -13 -30 -10 -30 16 0 45 22 45 35 0 28 -19 25
-35 -5z"/>
<path d="M9755 8260 c-10 -11 -14 -20 -8 -20 5 0 18 9 28 20 10 11 14 20 8 20
-5 0 -18 -9 -28 -20z"/>
<path d="M9670 8115 c0 -9 -9 -25 -20 -37 -11 -12 -32 -40 -47 -62 -15 -23
-39 -54 -54 -71 -22 -24 -32 -52 -49 -133 -11 -57 -18 -107 -15 -112 3 -5 -2
-21 -11 -35 -10 -16 -18 -51 -19 -94 -3 -66 -2 -68 32 -95 19 -15 38 -39 44
-52 14 -39 27 -20 28 43 0 42 -4 60 -17 70 -16 12 -16 14 1 27 10 8 27 12 37
9 27 -7 25 9 -5 37 -17 16 -25 34 -25 57 0 39 19 44 44 11 49 -68 46 -66 40
-28 -3 19 -14 71 -25 114 -10 44 -19 95 -19 113 0 32 5 36 45 36 6 0 10 27 10
60 0 39 4 62 13 65 6 2 12 11 12 19 0 9 7 21 17 28 9 7 14 19 10 29 -8 20 -27
21 -27 1z"/>
<path d="M7408 8038 c-10 -10 -15 -18 -12 -18 4 0 1 -7 -7 -16 -8 -9 -22 -14
-37 -11 -15 3 -30 -3 -42 -15 -14 -16 -22 -18 -38 -9 -11 6 -35 8 -53 4 -25
-5 -30 -3 -24 7 5 8 4 11 -2 7 -6 -4 -29 2 -51 13 -23 11 -49 20 -59 20 -10 0
-36 7 -58 14 -45 16 -103 12 -180 -11 -39 -12 -65 -30 -117 -85 -38 -38 -68
-73 -68 -79 0 -14 -17 -11 -23 5 -5 11 -19 13 -62 9 -43 -5 -59 -2 -67 8 -7
11 -11 11 -15 1 -2 -6 -9 -9 -14 -6 -6 3 -18 -1 -27 -9 -9 -9 -21 -15 -26 -14
-5 1 -12 -8 -17 -20 -6 -17 -5 -21 7 -16 9 3 14 -2 14 -15 0 -12 9 -23 19 -27
11 -3 23 -15 26 -26 5 -14 15 -20 33 -19 45 3 63 0 58 -9 -12 -19 28 -20 70
-1 24 11 59 20 77 19 20 -2 47 7 74 24 24 15 49 27 57 27 18 0 29 29 16 45 -7
9 -7 21 0 39 10 28 21 32 50 16 12 -6 28 -7 43 -1 18 7 30 5 46 -6 18 -12 25
-12 37 -2 27 22 27 0 0 -36 l-27 -35 23 -9 c13 -6 19 -10 14 -10 -6 -1 -1 -7
9 -15 12 -9 29 -11 49 -6 17 4 58 14 91 21 33 7 79 24 103 37 56 31 118 118
127 178 3 25 5 47 3 48 -2 2 -11 -6 -20 -16z"/>
<path d="M6125 7980 c-3 -4 -14 -6 -24 -3 -11 3 -28 -4 -40 -16 -12 -12 -30
-21 -41 -21 -24 0 -25 -8 -6 -44 16 -32 46 -55 118 -91 66 -33 87 -27 63 19
-8 15 -12 32 -9 37 3 5 52 7 109 4 57 -3 106 -2 109 3 6 11 -63 68 -114 95
-37 19 -156 32 -165 17z"/>
<path d="M9440 7412 c0 -11 41 -34 48 -28 3 4 -3 13 -14 21 -21 16 -34 19 -34
7z"/>
<path d="M6244 7169 c-4 -6 -20 -8 -38 -5 -18 4 -36 3 -39 -1 -7 -7 -29 -11
-79 -14 -15 -1 -25 -6 -22 -11 6 -9 3 -9 -36 -13 -14 -1 -53 -10 -87 -20 -67
-19 -130 -16 -145 7 -6 10 -14 9 -39 -4 -17 -10 -37 -18 -46 -18 -9 0 -13 -6
-10 -14 3 -7 1 -18 -4 -23 -17 -17 1 -42 39 -54 39 -13 101 -13 115 1 11 10
82 -27 116 -61 29 -29 125 -49 144 -30 15 15 27 14 27 -4 0 -8 5 -15 10 -15 6
0 8 11 4 27 -6 22 -4 25 10 20 10 -4 16 -1 16 8 0 23 37 27 72 8 26 -14 59
-18 163 -20 72 -1 168 -2 215 -3 47 -1 156 0 244 3 110 4 164 2 177 -6 14 -9
21 -9 31 1 15 15 63 16 91 1 11 -7 37 -13 57 -15 19 -1 62 -7 95 -13 51 -8 66
-7 115 11 30 11 77 22 104 25 27 3 64 14 82 24 19 10 41 16 49 13 8 -4 21 -2
28 2 6 5 46 9 87 9 61 0 78 4 97 21 21 19 21 22 6 43 -11 17 -14 35 -9 68 5
37 3 44 -8 40 -8 -3 -16 -1 -18 4 -2 7 -13 7 -31 0 -16 -6 -43 -11 -61 -11
-19 0 -51 -8 -72 -17 -22 -9 -45 -16 -52 -14 -7 1 -19 -5 -27 -13 -11 -11 -30
-13 -70 -10 -30 2 -55 1 -55 -4 0 -7 -33 -5 -190 13 -19 2 -57 9 -85 15 -66
15 -118 19 -130 10 -5 -4 -17 -7 -25 -7 -8 0 -30 -3 -49 -8 -31 -7 -33 -6 -28
14 3 13 0 21 -8 21 -8 0 -11 -8 -8 -20 6 -24 -9 -26 -28 -4 -12 15 -34 15 -71
-1 -13 -5 -20 -1 -26 16 l-9 23 -27 -27 c-23 -23 -29 -25 -46 -14 -18 10 -24
7 -52 -25 -43 -47 -101 -56 -159 -26 -22 11 -42 24 -45 29 -3 5 -9 7 -13 5 -4
-3 -14 5 -21 18 -8 15 -18 22 -30 19 -10 -3 -21 0 -24 6 -5 7 -15 7 -33 0 -17
-6 -30 -6 -39 2 -8 7 -19 7 -29 1 -19 -10 -65 -4 -65 8 0 5 6 11 13 13 9 4 9
6 0 6 -6 1 -15 -4 -19 -10z"/>
<path d="M9183 7033 c-7 -3 -13 -11 -13 -19 0 -9 5 -12 10 -9 15 9 12 0 -8
-23 -19 -22 -52 -21 -81 2 -11 9 -13 7 -7 -9 4 -16 1 -21 -13 -22 -14 -1 -18
3 -14 13 4 10 0 12 -11 8 -10 -4 -15 -13 -12 -21 3 -8 1 -11 -4 -8 -6 4 -10
-7 -10 -26 l0 -33 -30 29 c-26 25 -32 27 -56 16 -17 -7 -24 -17 -20 -26 5 -14
-6 -20 -28 -16 -4 1 -5 -10 -2 -24 6 -22 3 -25 -23 -25 -16 0 -31 -6 -35 -15
-3 -8 -12 -15 -21 -15 -8 0 -15 -7 -15 -15 0 -9 -8 -18 -17 -21 -50 -16 -92
-38 -87 -45 3 -5 -6 -9 -19 -9 -18 0 -27 -7 -31 -25 -4 -14 -11 -23 -16 -20
-5 3 -11 1 -15 -5 -4 -6 -10 -8 -15 -5 -5 3 -11 1 -15 -5 -3 -5 -15 -10 -27
-10 -14 0 -18 -5 -14 -15 4 -11 -3 -17 -24 -22 -17 -3 -30 -9 -30 -14 0 -5 -7
-9 -15 -9 -8 0 -15 -4 -15 -10 0 -13 6 -13 32 1 13 7 18 7 14 1 -3 -6 -2 -13
4 -17 6 -4 7 -11 4 -17 -4 -7 -9 -7 -13 1 -5 8 -16 8 -38 1 -25 -9 -30 -15
-25 -33 5 -19 3 -20 -11 -9 -13 12 -16 10 -19 -15 -2 -15 -9 -29 -15 -29 -7
-1 -20 -2 -29 -3 -9 0 -14 -7 -11 -13 6 -18 -11 -48 -27 -48 -7 0 -18 -11 -24
-25 -6 -14 -18 -25 -26 -25 -8 0 -17 -8 -20 -18 -3 -10 -19 -25 -35 -35 -17
-10 -32 -26 -36 -36 -3 -11 -13 -22 -21 -25 -8 -3 -21 -21 -29 -41 -10 -23
-20 -33 -30 -29 -9 4 -18 -3 -24 -19 -6 -14 -21 -27 -37 -31 -19 -5 -24 -10
-16 -18 17 -17 -5 -50 -31 -46 -12 1 -23 -2 -25 -7 -6 -18 -35 -45 -49 -45 -7
0 -16 -7 -20 -16 -3 -8 -15 -20 -27 -25 -39 -18 -71 -38 -81 -51 -5 -7 -22
-19 -37 -25 -16 -7 -28 -19 -28 -28 0 -9 -9 -15 -25 -15 -14 0 -28 -7 -32 -16
-4 -10 -13 -14 -29 -10 -33 9 -93 -24 -94 -50 0 -20 -29 -34 -75 -38 -5 -1
-14 -5 -18 -11 -6 -6 -10 -6 -14 3 -5 14 -33 17 -33 3 0 -15 -33 -23 -41 -10
-12 20 -50 21 -70 3 -16 -14 -21 -15 -35 -4 -13 11 -17 11 -24 0 -6 -9 -26
-14 -59 -13 -28 0 -51 -4 -51 -9 0 -7 -5 -6 -13 1 -10 7 -17 7 -24 0 -7 -7
-13 -8 -17 0 -8 13 -36 3 -36 -14 0 -7 -10 -12 -22 -12 -22 0 -37 -4 -83 -23
-69 -29 -234 -37 -243 -11 -3 10 2 11 18 6 15 -5 20 -4 16 4 -9 14 -25 14 -56
-2 -37 -19 -136 -20 -172 -1 -24 12 -32 13 -38 3 -5 -6 -15 -9 -23 -6 -12 4
-14 2 -10 -10 4 -11 2 -14 -8 -9 -8 3 -21 9 -30 12 -9 3 -22 17 -29 30 -15 27
-28 31 -36 10 -5 -12 -11 -13 -32 -3 -15 6 -29 14 -32 17 -3 3 -29 6 -58 8
-29 1 -68 11 -86 22 -19 10 -36 17 -39 14 -2 -3 -18 11 -34 29 -17 19 -47 40
-67 47 -20 6 -36 17 -36 23 0 7 -10 21 -23 33 -41 38 -47 38 -47 0 0 -22 5
-36 12 -36 7 0 22 -10 33 -23 11 -13 27 -26 35 -30 8 -4 35 -23 60 -42 25 -20
53 -38 63 -41 9 -4 17 -12 17 -19 0 -7 11 -16 25 -19 23 -6 56 -46 37 -46 -5
0 -19 -8 -31 -19 -15 -14 -18 -20 -8 -24 13 -5 50 16 43 24 -2 2 11 5 30 6 19
2 34 -2 34 -7 0 -6 9 -10 20 -10 11 0 20 -7 20 -15 0 -8 11 -22 25 -31 27 -17
33 -40 13 -46 -9 -3 -8 -9 5 -22 9 -10 17 -22 17 -27 0 -5 12 -9 27 -9 26 0
26 1 7 15 -19 15 -8 20 20 9 11 -4 14 -13 9 -32 -4 -18 -3 -23 6 -18 6 4 9 12
6 17 -4 5 -1 9 5 9 7 0 9 -8 5 -19 -5 -15 1 -20 32 -26 21 -4 43 -11 49 -16
11 -9 38 -15 98 -23 21 -3 36 -26 17 -26 -6 0 -11 -4 -11 -10 0 -15 27 -12 43
5 9 9 17 11 19 4 2 -6 16 -4 36 7 26 13 51 15 120 11 48 -3 100 -9 115 -13 19
-4 33 -2 45 9 13 12 26 14 55 8 32 -8 37 -6 37 9 0 10 7 20 15 24 11 4 15 -1
15 -17 0 -18 2 -19 10 -7 9 13 11 13 20 0 8 -12 10 -10 8 10 -3 21 2 25 27 28
28 2 29 2 11 -13 -11 -8 -17 -18 -13 -22 4 -3 16 2 26 11 11 10 23 16 28 13
11 -7 38 14 46 36 7 19 37 24 37 5 0 -7 5 -6 13 4 6 8 20 18 30 21 13 5 17 1
17 -18 0 -28 15 -41 24 -20 3 8 14 15 25 15 11 0 23 5 26 10 4 7 -2 9 -19 4
-17 -4 -26 -2 -26 5 0 18 26 24 57 14 27 -9 73 3 73 20 0 4 7 7 15 7 8 0 15 5
15 10 0 6 7 10 15 10 8 0 15 5 15 11 0 6 7 9 15 5 22 -8 46 4 55 28 8 21 8 20
18 -4 l11 -25 1 30 c0 25 2 27 11 13 14 -24 33 -23 26 2 -7 27 6 25 18 -2 6
-13 20 -24 33 -26 12 -2 22 -11 22 -20 1 -14 3 -14 12 3 16 30 18 31 29 15 9
-13 10 -13 7 0 -4 14 20 50 33 50 4 0 10 -8 12 -17 4 -17 5 -17 6 0 0 9 8 17
16 17 9 0 12 -6 9 -15 -7 -17 11 -21 21 -4 4 5 18 14 32 20 19 7 24 15 21 37
-3 31 18 62 44 62 10 0 18 -3 18 -6 0 -10 -28 -34 -39 -34 -6 0 -11 -4 -11 -9
0 -5 13 -9 29 -9 20 1 28 5 24 14 -3 8 0 14 6 14 6 0 11 -6 11 -13 0 -8 12
-19 27 -26 21 -10 28 -9 34 1 5 7 9 9 10 3 1 -5 3 -14 4 -20 2 -5 3 -14 4 -20
0 -5 11 8 22 30 12 22 32 50 45 62 27 25 35 54 9 33 -9 -7 -18 -10 -21 -7 -10
9 19 34 34 29 6 -2 12 3 12 12 0 9 5 16 10 16 6 0 10 -5 10 -11 0 -8 5 -7 16
2 8 7 13 21 11 31 -3 11 0 18 9 18 8 0 14 4 14 8 0 14 75 42 113 42 29 0 38 5
49 27 7 14 32 37 56 50 37 21 54 23 102 14 3 -1 1 -5 -5 -9 -5 -4 -16 -17 -23
-29 -10 -19 -10 -23 1 -23 8 0 19 11 25 25 7 15 20 25 32 25 11 0 20 5 20 10
0 6 -4 10 -9 10 -14 0 -21 44 -8 52 9 6 8 11 -3 19 -12 8 -9 9 10 3 35 -9 38
-14 17 -29 -12 -8 -14 -15 -8 -20 14 -8 31 2 31 20 0 7 12 16 26 19 20 5 25
12 21 26 -3 12 0 20 8 20 7 0 12 -10 11 -24 0 -13 -4 -22 -8 -19 -5 2 -9 -5
-9 -16 -1 -12 -2 -27 -3 -33 -1 -14 6 -14 43 -3 16 5 21 4 17 -4 -4 -6 -2 -11
4 -11 6 0 10 12 9 28 -3 40 11 72 31 72 24 0 46 60 28 72 -10 6 -10 10 1 17
16 10 6 31 -15 31 -12 0 -16 6 -13 26 0 4 -5 11 -13 16 -9 6 -6 7 10 3 22 -6
31 8 12 20 -6 4 -8 10 -5 15 3 5 -10 6 -30 3 -23 -4 -35 -2 -35 6 0 6 14 11
30 11 25 0 30 4 30 23 0 13 -5 28 -12 35 -9 9 -7 13 5 18 13 5 15 17 12 70 -4
61 -3 65 15 59 22 -7 28 10 8 18 -9 4 -10 8 -2 14 6 4 20 29 33 55 12 25 29
52 37 59 8 6 23 32 34 56 11 25 37 66 57 93 79 101 175 259 166 273 -4 8 -14
12 -20 10z m-53 -99 c0 -2 -7 -4 -15 -4 -8 0 -15 4 -15 10 0 5 7 7 15 4 8 -4
15 -8 15 -10z m-420 -744 c5 0 14 8 19 18 6 10 11 12 11 4 0 -20 -23 -39 -41
-35 -11 3 -20 -3 -24 -17 -5 -15 -13 -20 -26 -17 -10 3 -19 1 -19 -4 0 -5 -7
-9 -15 -9 -8 0 -15 -7 -15 -15 0 -12 4 -13 19 -5 26 13 31 13 31 -5 0 -8 -6
-16 -12 -16 -7 -1 -17 -2 -23 -4 -5 -1 -16 -3 -24 -3 -8 -1 -11 -5 -8 -9 4 -3
0 -14 -9 -24 -8 -9 -17 -26 -19 -36 -2 -10 -4 -19 -4 -21 -1 -2 -8 4 -17 12
-8 9 -20 14 -25 11 -13 -8 -11 -25 2 -25 13 0 38 -29 39 -44 0 -5 -7 -3 -15 4
-12 10 -15 10 -15 -4 0 -9 -7 -16 -15 -16 -8 0 -15 5 -15 10 0 6 4 10 8 10 5
0 9 7 9 15 0 8 -6 15 -14 15 -7 0 -13 -4 -13 -8 0 -12 -61 -45 -88 -48 -29 -3
-61 -30 -73 -61 -5 -13 -15 -23 -24 -23 -8 0 -15 -9 -15 -20 0 -11 -6 -20 -14
-20 -7 0 -16 -9 -19 -20 -5 -19 -46 -30 -48 -12 0 4 -2 18 -4 32 -1 14 4 33
13 43 14 15 17 16 32 2 16 -14 17 -14 13 10 -3 15 -1 25 6 25 6 0 11 7 11 16
0 10 6 14 15 10 8 -3 15 -1 15 4 0 15 33 50 47 50 7 0 17 9 23 21 6 11 19 19
27 17 9 -2 39 20 68 49 53 54 75 65 75 38 0 -8 5 -15 11 -15 6 0 9 9 6 20 -3
13 3 26 19 39 13 10 24 24 24 30 0 6 11 16 24 22 14 7 22 17 19 25 -3 8 5 16
21 20 14 3 27 11 28 18 0 6 3 -4 5 -21 2 -18 8 -33 13 -33z m119 -82 c1 -11
-4 -15 -13 -12 -13 5 -27 80 -17 90 6 6 29 -54 30 -78z m-143 16 c-4 -9 -9
-15 -11 -12 -3 3 -3 13 1 22 4 9 9 15 11 12 3 -3 3 -13 -1 -22z m94 14 c0 -4
-4 -8 -9 -8 -6 0 -12 4 -15 8 -3 5 1 9 9 9 8 0 15 -4 15 -9z m-40 -16 c0 -14
-11 -21 -26 -15 -21 8 -17 23 6 23 11 0 20 -4 20 -8z m50 -12 c0 -5 -2 -10 -4
-10 -2 0 -12 -3 -22 -7 -16 -6 -17 -5 -4 10 17 19 30 22 30 7z m-100 -40 c13
-1 13 -2 -1 -10 -18 -11 -59 -2 -59 12 0 6 10 8 23 4 12 -3 29 -6 37 -6z m146
-28 c-22 -5 -30 3 -21 18 5 8 11 7 22 -2 15 -12 14 -13 -1 -16z m-216 -11 c0
-5 -7 -12 -16 -15 -24 -9 -28 -7 -14 9 14 17 30 20 30 6z m167 -13 c-3 -8 -6
-5 -6 6 -1 11 2 17 5 13 3 -3 4 -12 1 -19z m-308 -113 c0 -5 -4 -3 -9 5 -5 8
-9 22 -9 30 0 16 17 -16 18 -35z m-84 -25 c-6 -9 -9 -9 -16 1 -10 17 0 34 13
21 6 -6 7 -16 3 -22z m42 5 c6 -14 7 -27 2 -31 -7 -4 -29 34 -29 52 0 13 17 0
27 -21z m-69 -27 c-2 -6 -10 -14 -16 -16 -7 -2 -10 2 -6 12 7 18 28 22 22 4z
m-217 -51 c-10 -9 -11 -8 -5 6 3 10 9 15 12 12 3 -3 0 -11 -7 -18z m9 -25 c0
-16 -27 -45 -39 -41 -8 3 -7 11 4 27 16 22 35 30 35 14z m-75 -61 c-6 -4 -23
-11 -40 -15 l-30 -6 25 15 c27 16 60 21 45 6z m58 -53 c2 -7 2 -21 -1 -31 -4
-14 -11 -17 -36 -11 -38 8 -40 9 -33 28 4 9 13 13 21 10 8 -3 17 -1 21 5 8 15
22 14 28 -1z m-1560 -155 c-13 -2 -33 -2 -45 0 -13 2 -3 4 22 4 25 0 35 -2 23
-4z m901 -45 c-3 -4 -14 -8 -25 -8 -11 0 -18 4 -15 8 2 4 14 8 25 8 11 0 17
-4 15 -8z"/>
<path d="M9040 7009 c0 -5 5 -7 10 -4 6 3 10 8 10 11 0 2 -4 4 -10 4 -5 0 -10
-5 -10 -11z"/>
<path d="M9126 7005 c-3 -8 -1 -15 4 -15 13 0 22 18 11 24 -5 3 -11 -1 -15 -9z"/>
<path d="M5160 6651 c0 -6 5 -13 10 -16 6 -3 10 1 10 9 0 9 -4 16 -10 16 -5 0
-10 -4 -10 -9z"/>
<path d="M6709 6623 c-1 -4 -1 -11 0 -15 1 -10 -8 -9 -34 1 -12 5 -25 3 -34
-6 -12 -12 -11 -17 8 -34 11 -11 21 -15 21 -10 0 5 8 10 18 10 99 2 102 2 102
22 0 10 5 19 12 19 6 0 9 3 5 6 -9 10 -97 16 -98 7z"/>
<path d="M5055 6554 c-16 -3 -82 -18 -145 -34 -63 -16 -151 -31 -195 -35 -112
-9 -187 -22 -280 -50 -101 -30 -249 -59 -435 -85 -226 -31 -326 -49 -414 -75
-44 -13 -119 -31 -166 -40 -117 -23 -203 -56 -296 -117 -117 -76 -328 -300
-402 -428 -15 -25 -37 -61 -50 -80 -38 -55 -178 -347 -207 -430 -62 -177 -88
-264 -126 -414 -49 -195 -72 -252 -241 -586 -124 -245 -176 -360 -241 -530
-35 -91 -143 -434 -157 -500 -7 -30 -35 -118 -62 -195 -46 -128 -61 -170 -118
-320 -11 -27 -38 -99 -61 -160 -23 -60 -50 -128 -60 -151 -10 -22 -19 -44 -19
-48 0 -15 -224 -421 -252 -457 -15 -20 -60 -99 -99 -175 -39 -77 -90 -173
-113 -214 -41 -75 -41 -76 -41 -180 0 -89 4 -118 28 -190 75 -223 198 -374
422 -521 186 -121 165 -79 166 -327 l1 -213 71 2 c40 2 75 8 79 14 6 7 11 6
16 -3 5 -7 16 -10 26 -6 15 6 12 9 -13 22 -33 15 -41 32 -16 32 9 0 18 7 21
15 4 8 10 15 15 15 10 0 49 37 49 46 0 3 -7 4 -15 0 -10 -4 -15 1 -15 14 0 28
-14 25 -30 -5 -9 -17 -17 -22 -24 -15 -7 7 -6 14 1 21 6 6 9 18 6 25 -3 9 2
14 17 14 17 0 21 4 17 20 -4 15 0 20 13 20 10 0 25 3 33 6 8 3 17 -2 21 -13 4
-10 2 -19 -3 -21 -22 -7 1 -22 25 -16 13 3 30 1 38 -5 10 -9 15 -8 19 3 5 11
14 12 46 5 38 -8 134 -44 206 -75 17 -7 64 -25 105 -40 41 -14 84 -30 95 -34
90 -33 120 -35 639 -35 l520 0 20 70 c21 69 24 73 174 224 85 85 166 176 182
204 19 33 31 46 34 37 3 -8 19 -85 36 -170 17 -85 40 -191 50 -235 10 -44 21
-92 25 -107 l5 -28 5255 0 5255 0 0 1869 0 1869 -37 -4 c-21 -2 -146 -15 -278
-29 -132 -14 -278 -29 -325 -35 -218 -23 -347 -33 -372 -27 -30 8 -31 9 -46
127 -14 114 -58 196 -161 303 -86 90 -158 143 -241 180 -35 16 -73 21 -185 24
-77 3 -163 11 -191 19 -83 23 -346 212 -457 327 -26 27 -51 62 -54 78 -3 16
-12 34 -19 40 -8 6 -14 18 -14 26 0 23 -112 127 -162 151 -24 12 -75 29 -113
38 -139 32 -292 86 -410 144 -66 32 -142 68 -170 80 -183 80 -212 98 -327 212
-62 61 -156 148 -209 194 -53 46 -107 100 -120 121 -50 82 -143 180 -183 192
-17 5 -105 17 -196 26 -311 30 -352 40 -364 89 -7 30 -83 106 -106 106 -9 0
-28 8 -41 18 -13 10 -57 37 -96 60 -40 24 -73 46 -73 50 0 7 -18 29 -120 139
-25 27 -53 65 -62 85 -14 29 -24 38 -50 42 -18 2 -69 9 -113 15 -44 6 -90 13
-102 17 -15 4 -23 2 -23 -6 0 -12 132 -175 158 -195 10 -8 7 -17 -13 -45 -14
-19 -34 -54 -44 -76 -10 -23 -35 -59 -54 -80 -25 -28 -42 -62 -58 -117 -12
-42 -26 -77 -31 -77 -4 0 -8 -11 -8 -25 0 -14 -5 -25 -11 -25 -11 0 -39 -24
-39 -34 0 -3 -19 -24 -41 -45 -23 -21 -39 -43 -35 -49 3 -5 -1 -15 -9 -22 -8
-7 -12 -16 -10 -21 8 -12 35 1 35 17 0 8 7 14 15 14 8 0 15 -2 15 -5 0 -10
-79 -223 -99 -270 -13 -27 -37 -77 -54 -110 -17 -33 -42 -82 -56 -110 -13 -27
-52 -93 -85 -145 -34 -52 -68 -109 -75 -127 -7 -17 -21 -39 -32 -49 -10 -9
-19 -21 -19 -26 0 -9 -297 -458 -382 -578 -44 -63 -150 -204 -158 -210 -3 -3
-19 -23 -35 -45 -55 -75 -253 -300 -332 -377 -169 -164 -351 -310 -691 -551
-72 -51 -186 -109 -246 -125 -34 -10 -36 -9 -31 9 4 10 2 19 -4 19 -6 0 -15
18 -22 39 -8 26 -16 38 -25 34 -18 -7 -19 33 -1 41 10 5 10 7 0 12 -7 3 -13
12 -13 20 0 8 -4 14 -10 14 -18 0 -39 45 -44 93 -2 26 -9 53 -15 61 -6 8 -7
16 -1 22 5 5 -2 26 -20 53 -17 24 -30 48 -30 52 0 4 -10 9 -22 11 -27 4 -39
48 -14 48 9 0 16 8 16 20 0 11 -4 20 -10 20 -5 0 -10 -4 -10 -10 0 -5 -5 -10
-10 -10 -14 0 -8 22 9 36 12 9 11 12 -3 17 -9 4 -16 15 -16 26 0 11 -5 21 -10
23 -6 2 -12 13 -13 26 -1 14 -8 22 -20 22 -10 0 -16 4 -12 9 6 11 -13 100 -25
116 -5 6 -6 32 -4 58 4 48 -18 108 -53 145 -7 7 -13 22 -13 31 0 10 -6 34 -14
53 -8 19 -13 46 -12 61 2 19 -2 28 -16 33 -14 4 -18 13 -16 32 5 34 29 72 45
72 16 0 16 2 -2 36 -8 16 -15 37 -15 47 0 12 -6 17 -17 15 -18 -4 -19 -13 -8
-58 l7 -25 -20 22 c-11 12 -23 19 -27 15 -5 -4 -6 0 -2 9 3 9 -1 26 -8 36 -14
21 -10 63 7 63 5 0 6 5 3 10 -11 17 5 32 21 19 11 -9 14 -7 14 10 0 12 -6 21
-15 21 -14 0 -14 3 -1 23 13 19 13 29 -2 84 -10 34 -21 65 -25 69 -4 4 -7 18
-7 31 0 13 -7 26 -15 29 -8 4 -15 17 -15 29 0 13 -4 26 -9 29 -5 3 -7 15 -4
25 3 10 0 22 -6 25 -6 4 -11 17 -11 29 0 34 -67 292 -84 326 -9 16 -16 38 -16
48 0 10 -11 47 -24 83 -13 36 -32 94 -41 130 -9 36 -23 85 -30 110 -20 65 -43
199 -40 243 1 23 -3 37 -11 37 -6 0 -14 7 -18 15 -3 8 -12 15 -21 15 -8 0 -15
5 -15 11 0 5 5 7 10 4 6 -3 10 -1 10 5 0 7 -6 10 -14 7 -17 -7 -76 55 -76 78
0 8 -7 15 -15 15 -8 0 -26 17 -39 38 -38 56 -53 73 -62 70 -16 -5 -49 37 -46
57 2 16 1 17 -7 5 -9 -12 -11 -12 -16 2 -4 10 -3 22 1 29 5 9 1 11 -14 7 -27
-7 -51 19 -54 60 -1 18 -8 32 -15 32 -7 0 -13 9 -13 20 0 11 -7 20 -15 20 -8
0 -15 5 -15 12 0 6 -7 4 -18 -5 -23 -21 -33 -22 -26 -2 4 8 1 15 -6 15 -19 0
-80 49 -80 63 0 7 -14 25 -31 42 -27 25 -40 29 -93 31 -33 1 -74 0 -91 -2z
m1055 -1829 c0 -19 5 -35 10 -35 6 0 10 -9 10 -20 0 -36 -27 -22 -34 18 -8 53
-7 72 4 72 6 0 10 -16 10 -35z m25 -195 c3 -5 1 -10 -4 -10 -6 0 -11 5 -11 10
0 6 2 10 4 10 3 0 8 -4 11 -10z m39 -186 c10 -25 -1 -29 -14 -5 -6 12 -7 21
-1 21 5 0 12 -7 15 -16z m84 -1139 c-3 -3 -9 2 -12 12 -6 14 -5 15 5 6 7 -7
10 -15 7 -18z m62 -101 c0 -8 -4 -12 -10 -9 -5 3 -10 10 -10 16 0 5 5 9 10 9
6 0 10 -7 10 -16z m7705 -504 c13 -15 16 -29 12 -56 -9 -56 -27 -67 -27 -17 0
23 -4 45 -10 48 -12 7 -13 45 -2 45 5 0 17 -9 27 -20z m42 -72 c-3 -8 -6 -5
-6 6 -1 11 2 17 5 13 3 -3 4 -12 1 -19z m-12 -95 c-10 -40 -17 -20 -9 23 5 24
9 32 12 21 2 -10 1 -30 -3 -44z m-8625 -3 c0 -11 -4 -20 -10 -20 -5 0 -10 -6
-10 -13 0 -15 -44 -39 -54 -30 -3 3 4 20 16 37 35 50 58 60 58 26z m63 -72 c7
-26 -1 -38 -12 -19 -7 11 -11 9 -20 -5 -6 -11 -11 -13 -11 -6 0 15 22 52 31
52 4 0 9 -10 12 -22z m-143 -26 c-5 -9 -19 -28 -30 -42 l-20 -25 9 27 c15 39
34 67 43 62 4 -3 4 -13 -2 -22z m75 -22 c3 -5 -2 -10 -12 -10 -13 0 -15 -2 -5
-9 10 -6 10 -10 -3 -21 -22 -18 -30 -5 -17 25 12 26 26 32 37 15z m90 -80 c3
-5 1 -10 -4 -10 -6 0 -11 5 -11 10 0 6 2 10 4 10 3 0 8 -4 11 -10z m-307 -36
c-2 -17 -11 -30 -25 -35 -22 -8 -22 -8 -6 26 20 41 36 46 31 9z m52 -25 c-7
-11 -14 -19 -16 -16 -7 7 7 37 17 37 6 0 5 -9 -1 -21z m-63 -51 c-3 -8 -6 -5
-6 6 -1 11 2 17 5 13 3 -3 4 -12 1 -19z m319 -14 c22 9 16 -12 -7 -25 -13 -7
-19 -7 -15 -1 3 6 2 13 -3 17 -6 3 -7 13 -3 23 6 16 7 16 10 -1 2 -11 9 -16
18 -13z m-300 -106 c-19 -26 -22 -7 -4 25 7 13 13 17 15 10 3 -7 -3 -23 -11
-35z m-144 20 c-15 -15 -16 -31 0 -22 6 4 8 3 5 -3 -4 -6 -16 -13 -27 -16 -18
-5 -19 -4 -4 24 8 16 20 29 26 29 9 0 9 -3 0 -12z m369 -41 c-8 -8 -11 -4 -11
14 0 33 14 47 18 19 2 -12 -1 -27 -7 -33z m105 26 c-10 -10 -19 5 -10 18 6 11
8 11 12 0 2 -7 1 -15 -2 -18z m-412 -18 c-4 -8 -11 -15 -16 -15 -6 0 -5 6 2
15 7 8 14 15 16 15 2 0 1 -7 -2 -15z m159 -10 c-3 -9 -8 -14 -10 -11 -3 3 -2
9 2 15 9 16 15 13 8 -4z m91 -43 c3 -5 3 -25 0 -44 -5 -29 -10 -35 -25 -31
-22 6 -22 7 -7 50 12 33 22 41 32 25z m-173 -59 c-10 -17 -10 -16 -11 3 0 23
13 41 18 25 2 -6 -1 -18 -7 -28z m269 6 c11 -8 12 -12 3 -16 -7 -2 -13 -11
-13 -19 0 -8 -4 -14 -9 -14 -5 0 -16 -3 -25 -6 -21 -8 -20 11 2 41 20 28 22
29 42 14z m-207 -19 c-3 -11 -9 -17 -14 -15 -10 7 -1 35 11 35 5 0 6 -9 3 -20z
m52 -17 c-4 -10 -8 -23 -9 -30 -3 -17 -16 -29 -16 -15 0 14 22 62 28 62 2 0 1
-8 -3 -17z m212 -3 c-4 -28 -15 -35 -12 -8 3 27 3 28 10 28 3 0 4 -9 2 -20z
m-149 -36 c2 -11 -9 -30 -24 -44 -24 -22 -26 -23 -21 -5 3 11 9 33 13 48 7 31
27 31 32 1z m-328 -9 c0 -12 -24 -55 -32 -55 -11 0 -10 4 4 35 9 21 28 35 28
20z m87 -87 c-3 -8 -6 -5 -6 6 -1 11 2 17 5 13 3 -3 4 -12 1 -19z m-72 -35
c-8 -32 -35 -74 -35 -53 0 23 23 80 33 80 5 0 6 -12 2 -27z m-72 -13 c-3 -11
-9 -20 -15 -20 -5 0 -4 9 2 20 6 11 12 20 14 20 2 0 2 -9 -1 -20z m421 -64
c-3 -14 -10 -26 -14 -26 -4 0 -17 -15 -29 -32 -27 -43 -27 -30 1 24 36 72 56
88 42 34z m55 -30 c-7 -14 -16 -26 -21 -26 -5 0 -1 13 8 30 21 35 30 33 13 -4z
m-55 -41 c-7 -16 -24 -21 -24 -6 0 8 7 13 27 20 1 1 0 -6 -3 -14z m-198 -42
c-11 -11 -19 6 -11 24 8 17 8 17 12 0 3 -10 2 -21 -1 -24z m683 -184 c-6 -12
-9 -37 -7 -55 4 -35 -8 -46 -19 -18 -7 20 14 94 28 94 6 0 5 -8 -2 -21z m-652
-21 c-3 -8 -6 -5 -6 6 -1 11 2 17 5 13 3 -3 4 -12 1 -19z m-17 -48 c0 -5 -5
-10 -11 -10 -5 0 -7 5 -4 10 3 6 8 10 11 10 2 0 4 -4 4 -10z m27 -82 c-3 -8
-6 -5 -6 6 -1 11 2 17 5 13 3 -3 4 -12 1 -19z m549 -23 c-9 -21 -16 -48 -16
-62 0 -15 -4 -22 -11 -17 -13 7 -5 46 18 91 23 43 28 35 9 -12z m39 -24 c-21
-43 -29 -39 -8 4 9 19 18 33 21 31 2 -2 -4 -18 -13 -35z m165 -64 c0 -5 -7 -4
-15 3 -8 7 -15 20 -15 29 1 13 3 13 15 -3 8 -11 15 -24 15 -29z m-266 -94
c-13 -31 -29 -62 -35 -70 -6 -7 -8 -13 -5 -13 4 0 -2 -17 -13 -37 -27 -53 -33
-83 -15 -90 18 -7 48 19 69 60 17 36 37 69 45 77 3 3 12 14 20 24 11 14 11 17
2 12 -10 -6 -9 0 2 23 17 33 43 44 31 14 -4 -10 -8 -27 -11 -38 -6 -30 -32
-81 -49 -95 -8 -7 -15 -16 -15 -21 0 -4 -13 -22 -30 -40 -34 -38 -69 -47 -87
-22 -12 16 -13 16 -13 0 0 -9 -4 -17 -10 -17 -18 0 -2 66 38 152 22 47 45 88
51 92 6 4 11 16 11 26 0 18 18 31 32 23 4 -2 -4 -29 -18 -60z m200 34 c-4 -7
-14 -20 -22 -29 -8 -10 -16 -29 -17 -42 -2 -14 -7 -31 -11 -38 -5 -7 -8 -22
-6 -33 2 -17 0 -17 -8 3 -8 18 -3 38 21 92 18 38 36 67 40 64 5 -3 6 -11 3
-17z m21 -97 c-9 -18 -19 -30 -21 -27 -3 3 2 19 11 37 9 18 19 30 21 27 3 -3
-2 -19 -11 -37z m175 -12 c-1 -26 -3 -30 -10 -16 -6 9 -7 23 -4 32 9 25 14 19
14 -16z m-119 -85 c-12 -20 -14 -14 -5 12 4 9 9 14 11 11 3 -2 0 -13 -6 -23z
m201 -5 c-8 -8 -9 -4 -5 13 4 13 8 18 11 10 2 -7 -1 -18 -6 -23z m53 -28 c-3
-5 -11 -10 -16 -10 -6 0 -7 5 -4 10 3 6 11 10 16 10 6 0 7 -4 4 -10z m-279
-48 c-11 -10 -15 4 -8 28 l7 25 3 -23 c2 -13 1 -26 -2 -30z m54 28 c-6 -11
-13 -20 -16 -20 -2 0 0 9 6 20 6 11 13 20 16 20 2 0 0 -9 -6 -20z m-182 -60
c-18 -16 -20 -21 -9 -29 11 -7 9 -13 -9 -31 -12 -12 -23 -30 -25 -40 -2 -10
-9 -28 -15 -39 -8 -16 -7 -27 3 -46 13 -26 13 -26 35 -7 12 11 29 37 38 58 24
59 55 124 60 124 2 0 4 -14 4 -31 0 -17 -4 -28 -10 -24 -5 3 -13 -7 -16 -22
-4 -15 -16 -41 -26 -58 -10 -16 -21 -38 -24 -48 -9 -26 -54 -34 -70 -12 -7 9
-17 14 -23 10 -35 -21 19 117 87 225 14 21 17 22 20 7 2 -10 -7 -26 -20 -37z
m238 0 c8 0 14 -4 14 -10 0 -11 -33 -14 -42 -4 -3 3 -3 15 0 27 5 18 7 19 10
5 2 -10 10 -18 18 -18z m212 -48 c6 -18 -15 -14 -22 4 -4 10 -1 14 6 12 6 -2
14 -10 16 -16z m-673 -22 c3 -5 1 -10 -4 -10 -6 0 -11 5 -11 10 0 6 2 10 4 10
3 0 8 -4 11 -10z m649 -55 c-5 -13 -34 -30 -34 -20 0 3 5 14 12 24 13 22 30
19 22 -4z m-34 -58 c0 -12 -6 -31 -13 -42 -7 -11 -14 -29 -14 -40 -1 -11 -3
-27 -5 -34 -2 -8 7 -20 20 -26 19 -10 20 -14 8 -24 -11 -9 -15 -8 -20 4 -3 8
-15 15 -26 15 -29 0 -28 7 14 87 9 17 16 35 15 40 -1 4 -1 16 0 26 2 26 21 21
21 -6z m-1510 -56 c0 -3 -13 -6 -29 -7 -19 -1 -28 3 -25 11 5 12 54 9 54 -4z
m1587 1 c-10 -10 -15 -21 -12 -24 3 -3 -2 -22 -12 -42 -13 -28 -19 -33 -25
-21 -6 9 -2 25 9 42 20 34 44 63 51 63 3 0 -2 -8 -11 -18z m-1622 -71 c3 -6
-3 -15 -14 -20 -28 -16 -33 -14 -21 9 12 22 25 26 35 11z m1735 -46 c0 -14 -4
-25 -10 -25 -11 0 -14 33 -3 43 11 11 13 8 13 -18z m72 -17 c-7 -7 -12 -8 -12
-2 0 14 12 26 19 19 2 -3 -1 -11 -7 -17z m-1846 -14 c-4 -9 -9 -15 -11 -12 -3
3 -3 13 1 22 4 9 9 15 11 12 3 -3 3 -13 -1 -22z m61 -16 c-3 -8 -6 -5 -6 6 -1
11 2 17 5 13 3 -3 4 -12 1 -19z m1407 -6 c-6 -4 -16 -22 -22 -41 -7 -19 -18
-42 -26 -50 -20 -24 -29 -71 -16 -87 11 -13 6 -34 -8 -34 -4 0 -12 11 -18 25
-10 20 -7 32 12 74 13 27 33 71 44 97 16 37 23 45 33 35 8 -8 9 -14 1 -19z
m298 -4 c-5 -19 12 -25 23 -8 3 6 11 10 17 10 7 0 6 -6 -2 -15 -16 -20 -46
-19 -54 1 -9 24 -7 31 8 31 8 0 11 -8 8 -19z m-702 -33 c0 -5 -5 -3 -10 5 -5
8 -10 20 -10 25 0 6 5 3 10 -5 5 -8 10 -19 10 -25z m442 -37 c-7 -7 -12 -8
-12 -2 0 14 12 26 19 19 2 -3 -1 -11 -7 -17z m-12 -35 c0 -5 -10 -19 -21 -33
l-20 -25 16 33 c15 30 25 41 25 25z m111 -30 c-8 -15 -10 -15 -11 -2 0 17 10
32 18 25 2 -3 -1 -13 -7 -23z m-151 -39 c0 -3 -7 -12 -15 -20 -16 -17 -18 -14
-9 10 6 15 24 23 24 10z m60 -41 c0 -19 -3 -24 -10 -17 -6 6 -8 18 -4 27 9 24
14 21 14 -10z"/>
<path d="M6695 6540 c4 -6 11 -8 16 -5 14 9 11 15 -7 15 -8 0 -12 -5 -9 -10z"/>
<path d="M5300 6471 c0 -5 7 -11 15 -15 8 -3 15 -1 15 3 0 5 -7 11 -15 15 -8
3 -15 1 -15 -3z"/>
<path d="M5490 6300 c0 -5 5 -10 11 -10 5 0 7 5 4 10 -3 6 -8 10 -11 10 -2 0
-4 -4 -4 -10z"/>
<path d="M8850 5994 c-24 -13 -24 -14 -4 -14 12 0 24 7 28 15 3 8 4 15 3 14
-1 -1 -13 -7 -27 -15z"/>
<path d="M8920 5979 c0 -15 15 -17 33 -4 16 11 15 13 -8 13 -14 0 -25 -4 -25
-9z"/>
<path d="M8882 5944 c1 -9 9 -19 16 -22 9 -3 13 2 10 14 -1 9 -9 19 -16 22 -9
3 -13 -2 -10 -14z"/>
<path d="M8927 5920 c-21 -30 -21 -40 -2 -40 8 0 15 5 15 11 0 6 9 8 23 4 20
-6 20 -6 6 6 -9 8 -19 20 -21 28 -3 11 -9 8 -21 -9z"/>
<path d="M8552 5908 c6 -18 28 -21 28 -4 0 9 -7 16 -16 16 -9 0 -14 -5 -12
-12z"/>
<path d="M8500 5876 c0 -10 9 -16 21 -16 24 0 21 23 -4 28 -10 2 -17 -3 -17
-12z"/>
<path d="M8870 5865 c0 -8 4 -15 10 -15 5 0 7 7 4 15 -4 8 -8 15 -10 15 -2 0
-4 -7 -4 -15z"/>
<path d="M8486 5833 c-4 -9 -4 -18 -1 -21 3 -3 5 0 5 6 0 6 8 12 18 14 15 3
16 4 0 10 -10 4 -19 1 -22 -9z"/>
<path d="M8860 5836 c0 -2 7 -7 16 -10 8 -3 12 -2 9 4 -6 10 -25 14 -25 6z"/>
<path d="M8340 5781 c0 -5 7 -12 16 -15 24 -9 27 -7 10 9 -17 17 -26 19 -26 6z"/>
<path d="M8280 5725 c0 -8 7 -15 15 -15 8 0 15 4 15 9 0 5 -7 11 -15 15 -9 3
-15 0 -15 -9z"/>
<path d="M8340 5680 c19 -13 30 -13 30 0 0 6 -10 10 -22 10 -19 0 -20 -2 -8
-10z"/>
<path d="M7996 5578 c7 -11 34 -10 34 1 0 6 -9 9 -19 8 -11 0 -17 -5 -15 -9z"/>
<path d="M6150 5556 c0 -9 7 -15 18 -13 26 4 30 22 5 25 -16 2 -23 -2 -23 -12z"/>
<path d="M6205 5511 c3 -5 -2 -17 -11 -25 -14 -15 -14 -16 5 -16 16 0 21 6 21
25 0 14 -5 25 -11 25 -5 0 -8 -4 -4 -9z"/>
<path d="M6246 5483 c-11 -11 -6 -23 9 -23 8 0 15 4 15 9 0 13 -16 22 -24 14z"/>
<path d="M6410 5330 c0 -5 7 -7 15 -4 8 4 15 8 15 10 0 2 -7 4 -15 4 -8 0 -15
-4 -15 -10z"/>
<path d="M6548 5303 c7 -3 16 -2 19 1 4 3 -2 6 -13 5 -11 0 -14 -3 -6 -6z"/>
<path d="M6440 5290 c0 -5 5 -10 10 -10 6 0 10 5 10 10 0 6 -4 10 -10 10 -5 0
-10 -4 -10 -10z"/>
<path d="M6315 5140 c3 -5 8 -10 11 -10 2 0 4 5 4 10 0 6 -5 10 -11 10 -5 0
-7 -4 -4 -10z"/>
<path d="M6335 5109 c-4 -6 -5 -12 -2 -15 2 -3 7 2 10 11 7 17 1 20 -8 4z"/>
<path d="M6380 5048 c0 -4 -7 -8 -15 -8 -8 0 -15 -6 -15 -13 0 -18 21 -37 40
-37 8 0 28 -7 44 -15 15 -8 32 -12 37 -9 12 7 11 34 -1 34 -5 0 -10 9 -10 19
0 11 -9 23 -22 27 -33 11 -58 12 -58 2z m55 -18 c3 -5 1 -10 -4 -10 -6 0 -11
5 -11 10 0 6 2 10 4 10 3 0 8 -4 11 -10z"/>
<path d="M6515 4950 c-3 -6 2 -13 12 -17 10 -3 21 -8 26 -10 4 -2 7 0 7 6 0
16 -38 33 -45 21z"/>
<path d="M6237 4297 c-3 -8 -2 -19 3 -26 5 -9 9 -4 12 13 5 27 -6 36 -15 13z"/>
<path d="M6208 4253 c7 -3 16 -2 19 1 4 3 -2 6 -13 5 -11 0 -14 -3 -6 -6z"/>
</g>
</svg>
